<mxfile host="app.diagrams.net" modified="2023-10-16T02:16:05.798Z" agent="Mozilla/5.0 (Windows NT 10.0; Win64; x64) AppleWebKit/537.36 (KHTML, like Gecko) Chrome/106.0.0.0 Safari/537.36 Edg/106.0.1370.47" etag="fwjDBKMqQKOONSGDm2GN" version="22.0.4" type="github">
  <diagram id="C5RBs43oDa-KdzZeNtuy" name="Page-1">
    <mxGraphModel dx="501" dy="439" grid="1" gridSize="10" guides="1" tooltips="1" connect="1" arrows="1" fold="1" page="1" pageScale="1" pageWidth="827" pageHeight="1169" math="0" shadow="0">
      <root>
        <mxCell id="WIyWlLk6GJQsqaUBKTNV-0" />
        <mxCell id="WIyWlLk6GJQsqaUBKTNV-1" parent="WIyWlLk6GJQsqaUBKTNV-0" />
        <mxCell id="fQJME5itWBGBy7XVC40M-8" value="" style="edgeStyle=orthogonalEdgeStyle;rounded=0;orthogonalLoop=1;jettySize=auto;html=1;" edge="1" parent="WIyWlLk6GJQsqaUBKTNV-1" source="fQJME5itWBGBy7XVC40M-0" target="fQJME5itWBGBy7XVC40M-1">
          <mxGeometry relative="1" as="geometry" />
        </mxCell>
        <mxCell id="fQJME5itWBGBy7XVC40M-0" value="MULAI" style="rounded=1;whiteSpace=wrap;html=1;" vertex="1" parent="WIyWlLk6GJQsqaUBKTNV-1">
          <mxGeometry x="220" y="250" width="120" height="60" as="geometry" />
        </mxCell>
        <mxCell id="fQJME5itWBGBy7XVC40M-9" value="" style="edgeStyle=orthogonalEdgeStyle;rounded=0;orthogonalLoop=1;jettySize=auto;html=1;" edge="1" parent="WIyWlLk6GJQsqaUBKTNV-1" source="fQJME5itWBGBy7XVC40M-1" target="fQJME5itWBGBy7XVC40M-2">
          <mxGeometry relative="1" as="geometry" />
        </mxCell>
        <mxCell id="fQJME5itWBGBy7XVC40M-1" value="INPUT JARI JARI (r)" style="shape=parallelogram;perimeter=parallelogramPerimeter;whiteSpace=wrap;html=1;fixedSize=1;" vertex="1" parent="WIyWlLk6GJQsqaUBKTNV-1">
          <mxGeometry x="205" y="380" width="150" height="60" as="geometry" />
        </mxCell>
        <mxCell id="fQJME5itWBGBy7XVC40M-12" value="tidak" style="edgeStyle=orthogonalEdgeStyle;rounded=0;orthogonalLoop=1;jettySize=auto;html=1;" edge="1" parent="WIyWlLk6GJQsqaUBKTNV-1" source="fQJME5itWBGBy7XVC40M-2" target="fQJME5itWBGBy7XVC40M-3">
          <mxGeometry relative="1" as="geometry" />
        </mxCell>
        <mxCell id="fQJME5itWBGBy7XVC40M-13" value="ya" style="edgeStyle=orthogonalEdgeStyle;rounded=0;orthogonalLoop=1;jettySize=auto;html=1;" edge="1" parent="WIyWlLk6GJQsqaUBKTNV-1" source="fQJME5itWBGBy7XVC40M-2" target="fQJME5itWBGBy7XVC40M-4">
          <mxGeometry relative="1" as="geometry" />
        </mxCell>
        <mxCell id="fQJME5itWBGBy7XVC40M-2" value="jari jari= kelipatan 7?" style="rhombus;whiteSpace=wrap;html=1;" vertex="1" parent="WIyWlLk6GJQsqaUBKTNV-1">
          <mxGeometry x="195" y="485" width="170" height="100" as="geometry" />
        </mxCell>
        <mxCell id="fQJME5itWBGBy7XVC40M-14" style="edgeStyle=orthogonalEdgeStyle;rounded=0;orthogonalLoop=1;jettySize=auto;html=1;entryX=1;entryY=0.5;entryDx=0;entryDy=0;" edge="1" parent="WIyWlLk6GJQsqaUBKTNV-1" source="fQJME5itWBGBy7XVC40M-3" target="fQJME5itWBGBy7XVC40M-5">
          <mxGeometry relative="1" as="geometry">
            <mxPoint x="390" y="710" as="targetPoint" />
            <Array as="points">
              <mxPoint x="470" y="710" />
            </Array>
          </mxGeometry>
        </mxCell>
        <mxCell id="fQJME5itWBGBy7XVC40M-3" value="phi=3.14" style="rounded=0;whiteSpace=wrap;html=1;" vertex="1" parent="WIyWlLk6GJQsqaUBKTNV-1">
          <mxGeometry x="414" y="505" width="120" height="60" as="geometry" />
        </mxCell>
        <mxCell id="fQJME5itWBGBy7XVC40M-15" style="edgeStyle=orthogonalEdgeStyle;rounded=0;orthogonalLoop=1;jettySize=auto;html=1;entryX=0;entryY=0.5;entryDx=0;entryDy=0;" edge="1" parent="WIyWlLk6GJQsqaUBKTNV-1" source="fQJME5itWBGBy7XVC40M-4" target="fQJME5itWBGBy7XVC40M-5">
          <mxGeometry relative="1" as="geometry">
            <Array as="points">
              <mxPoint x="70" y="710" />
            </Array>
          </mxGeometry>
        </mxCell>
        <mxCell id="fQJME5itWBGBy7XVC40M-4" value="phi=22/7" style="rounded=0;whiteSpace=wrap;html=1;" vertex="1" parent="WIyWlLk6GJQsqaUBKTNV-1">
          <mxGeometry y="505" width="120" height="60" as="geometry" />
        </mxCell>
        <mxCell id="fQJME5itWBGBy7XVC40M-10" value="" style="edgeStyle=orthogonalEdgeStyle;rounded=0;orthogonalLoop=1;jettySize=auto;html=1;" edge="1" parent="WIyWlLk6GJQsqaUBKTNV-1" source="fQJME5itWBGBy7XVC40M-5" target="fQJME5itWBGBy7XVC40M-6">
          <mxGeometry relative="1" as="geometry" />
        </mxCell>
        <mxCell id="fQJME5itWBGBy7XVC40M-5" value="hitung luas L=phixrxr" style="rounded=0;whiteSpace=wrap;html=1;" vertex="1" parent="WIyWlLk6GJQsqaUBKTNV-1">
          <mxGeometry x="192.5" y="680" width="175" height="60" as="geometry" />
        </mxCell>
        <mxCell id="fQJME5itWBGBy7XVC40M-11" value="" style="edgeStyle=orthogonalEdgeStyle;rounded=0;orthogonalLoop=1;jettySize=auto;html=1;" edge="1" parent="WIyWlLk6GJQsqaUBKTNV-1" source="fQJME5itWBGBy7XVC40M-6" target="fQJME5itWBGBy7XVC40M-7">
          <mxGeometry relative="1" as="geometry" />
        </mxCell>
        <mxCell id="fQJME5itWBGBy7XVC40M-6" value="tampilkan luas" style="shape=display;whiteSpace=wrap;html=1;" vertex="1" parent="WIyWlLk6GJQsqaUBKTNV-1">
          <mxGeometry x="215" y="840" width="130" height="60" as="geometry" />
        </mxCell>
        <mxCell id="fQJME5itWBGBy7XVC40M-7" value="SELESAI" style="rounded=1;whiteSpace=wrap;html=1;" vertex="1" parent="WIyWlLk6GJQsqaUBKTNV-1">
          <mxGeometry x="225" y="970" width="120" height="60" as="geometry" />
        </mxCell>
      </root>
    </mxGraphModel>
  </diagram>
</mxfile>
